<svg width="226" height="61" viewBox="0 0 226 61" fill="none" xmlns="http://www.w3.org/2000/svg">
<circle cx="178" cy="22" r="22" fill="#FF8484"/>
<path d="M1.53 24L10.53 1.77H10.65L19.65 24H18L10.17 4.11L11.19 3.54L3 24H1.53ZM5.88 15.57H15.33L15.75 16.95H5.52L5.88 15.57ZM27.5716 24V2.22H27.6016L38.1016 17.13L37.4716 17.04L47.9416 2.22H47.9716V24H46.5316V5.61L46.6516 6.33L37.7716 18.84H37.7116L28.7716 6.33L29.0116 5.67V24H27.5716ZM55.8991 24L64.8991 1.77H65.0191L74.0191 24H72.3691L64.5391 4.11L65.5591 3.54L57.3691 24H55.8991ZM60.2491 15.57H69.6991L70.1191 16.95H59.8891L60.2491 15.57ZM86.8008 2.7C87.6008 2.7 88.3908 2.82 89.1708 3.06C89.9708 3.28 90.6908 3.64 91.3308 4.14C91.9908 4.62 92.5208 5.24 92.9208 6C93.3208 6.76 93.5208 7.67 93.5208 8.73C93.5208 9.53 93.4008 10.31 93.1608 11.07C92.9208 11.81 92.5308 12.48 91.9908 13.08C91.4508 13.68 90.7508 14.16 89.8908 14.52C89.0308 14.88 87.9708 15.06 86.7108 15.06H83.4108V24H81.9408V2.7H86.8008ZM86.6208 13.65C87.6808 13.65 88.5608 13.5 89.2608 13.2C89.9608 12.9 90.5108 12.51 90.9108 12.03C91.3108 11.55 91.5908 11.03 91.7508 10.47C91.9308 9.89 92.0208 9.33 92.0208 8.79C92.0208 8.15 91.9008 7.55 91.6608 6.99C91.4408 6.43 91.1108 5.94 90.6708 5.52C90.2308 5.08 89.7008 4.74 89.0808 4.5C88.4608 4.24 87.7708 4.11 87.0108 4.11H83.4108V13.65H86.6208ZM89.6808 14.31L95.5908 24H93.8808L87.9408 14.34L89.6808 14.31ZM102.069 2.7H116.019V4.11H109.749V24H108.279V4.11H102.069V2.7ZM129.883 16.41L121.933 2.7H123.733L130.903 15.18L130.393 15.21L137.533 2.7H139.303L131.353 16.41V24H129.883V16.41ZM142.548 24L151.548 1.77H151.668L160.668 24H159.018L151.188 4.11L152.208 3.54L144.018 24H142.548ZM146.898 15.57H156.348L156.768 16.95H146.538L146.898 15.57ZM18.69 52.59C18.23 52.87 17.7 53.14 17.1 53.4C16.5 53.66 15.84 53.86 15.12 54C14.4 54.16 13.62 54.24 12.78 54.24C11.16 54.24 9.69 53.96 8.37 53.4C7.05 52.82 5.92 52.04 4.98 51.06C4.04 50.06 3.31 48.92 2.79 47.64C2.29 46.34 2.04 44.96 2.04 43.5C2.04 41.94 2.31 40.49 2.85 39.15C3.39 37.81 4.15 36.64 5.13 35.64C6.11 34.64 7.25 33.86 8.55 33.3C9.85 32.74 11.26 32.46 12.78 32.46C13.9 32.46 14.95 32.61 15.93 32.91C16.91 33.21 17.8 33.6 18.6 34.08L17.97 35.43C17.27 34.99 16.48 34.62 15.6 34.32C14.72 34.02 13.79 33.87 12.81 33.87C11.55 33.87 10.36 34.12 9.24 34.62C8.12 35.1 7.13 35.78 6.27 36.66C5.43 37.52 4.77 38.53 4.29 39.69C3.81 40.85 3.57 42.1 3.57 43.44C3.57 44.72 3.78 45.93 4.2 47.07C4.64 48.21 5.26 49.21 6.06 50.07C6.88 50.93 7.86 51.61 9 52.11C10.14 52.59 11.41 52.83 12.81 52.83C13.85 52.83 14.8 52.69 15.66 52.41C16.54 52.11 17.32 51.74 18 51.3L18.69 52.59ZM42.9122 32.7V54H41.4422V43.98H28.6022V54H27.1322V32.7H28.6022V42.6H41.4422V32.7H42.9122ZM51.3408 43.38C51.3408 41.88 51.6208 40.48 52.1808 39.18C52.7408 37.86 53.5208 36.7 54.5208 35.7C55.5208 34.68 56.6708 33.89 57.9708 33.33C59.2908 32.75 60.7008 32.46 62.2008 32.46C63.7008 32.46 65.1108 32.75 66.4308 33.33C67.7508 33.89 68.9108 34.68 69.9108 35.7C70.9108 36.7 71.6908 37.86 72.2508 39.18C72.8308 40.48 73.1208 41.88 73.1208 43.38C73.1208 44.88 72.8308 46.29 72.2508 47.61C71.6908 48.91 70.9108 50.06 69.9108 51.06C68.9108 52.06 67.7508 52.84 66.4308 53.4C65.1108 53.96 63.7008 54.24 62.2008 54.24C60.7008 54.24 59.2908 53.97 57.9708 53.43C56.6708 52.89 55.5208 52.13 54.5208 51.15C53.5208 50.17 52.7408 49.02 52.1808 47.7C51.6208 46.38 51.3408 44.94 51.3408 43.38ZM52.8408 43.41C52.8408 44.71 53.0808 45.93 53.5608 47.07C54.0408 48.21 54.7108 49.21 55.5708 50.07C56.4308 50.93 57.4208 51.61 58.5408 52.11C59.6808 52.59 60.8908 52.83 62.1708 52.83C63.4908 52.83 64.7208 52.59 65.8608 52.11C67.0008 51.61 68.0008 50.93 68.8608 50.07C69.7208 49.21 70.3908 48.21 70.8708 47.07C71.3708 45.93 71.6208 44.7 71.6208 43.38C71.6208 42.08 71.3708 40.86 70.8708 39.72C70.3908 38.56 69.7208 37.55 68.8608 36.69C68.0008 35.81 67.0008 35.12 65.8608 34.62C64.7208 34.12 63.5008 33.87 62.2008 33.87C60.8808 33.87 59.6508 34.13 58.5108 34.65C57.3708 35.15 56.3708 35.84 55.5108 36.72C54.6708 37.6 54.0108 38.62 53.5308 39.78C53.0708 40.92 52.8408 42.13 52.8408 43.41ZM78.263 32.76H79.943L86.993 52.02L86.663 51.93L91.103 39.93L91.793 41.82L86.663 54.99L78.263 32.76ZM88.073 32.76H89.543L96.863 52.02L96.413 51.9L103.553 32.76H105.113L96.563 54.96L88.073 32.76ZM112.978 54V32.7H118.228C120.288 32.7 122.038 33.03 123.478 33.69C124.938 34.33 126.118 35.18 127.018 36.24C127.918 37.3 128.578 38.46 128.998 39.72C129.418 40.98 129.628 42.23 129.628 43.47C129.628 45.09 129.348 46.55 128.788 47.85C128.228 49.13 127.458 50.23 126.478 51.15C125.518 52.07 124.418 52.78 123.178 53.28C121.938 53.76 120.628 54 119.248 54H112.978ZM114.448 52.59H118.858C120.138 52.59 121.338 52.38 122.458 51.96C123.578 51.54 124.558 50.93 125.398 50.13C126.258 49.33 126.928 48.37 127.408 47.25C127.888 46.11 128.128 44.82 128.128 43.38C128.128 42.16 127.918 41 127.498 39.9C127.098 38.78 126.488 37.79 125.668 36.93C124.848 36.07 123.838 35.39 122.638 34.89C121.438 34.39 120.038 34.14 118.438 34.14H114.448V52.59ZM153.848 32.7V54H152.378V43.98H139.538V54H138.068V32.7H139.538V42.6H152.378V32.7H153.848ZM164.976 46.8C164.976 48.04 165.226 49.11 165.726 50.01C166.246 50.91 166.946 51.61 167.826 52.11C168.706 52.59 169.706 52.83 170.826 52.83C171.966 52.83 172.976 52.59 173.856 52.11C174.756 51.61 175.456 50.91 175.956 50.01C176.476 49.11 176.736 48.04 176.736 46.8V32.7H178.176V46.89C178.176 48.43 177.846 49.75 177.186 50.85C176.546 51.95 175.666 52.79 174.546 53.37C173.446 53.95 172.206 54.24 170.826 54.24C169.446 54.24 168.196 53.95 167.076 53.37C165.976 52.79 165.106 51.95 164.466 50.85C163.826 49.75 163.506 48.43 163.506 46.89V32.7H164.976V46.8ZM192.697 32.7C193.497 32.7 194.287 32.82 195.067 33.06C195.867 33.28 196.587 33.64 197.227 34.14C197.887 34.62 198.417 35.24 198.817 36C199.217 36.76 199.417 37.67 199.417 38.73C199.417 39.53 199.297 40.31 199.057 41.07C198.817 41.81 198.427 42.48 197.887 43.08C197.347 43.68 196.647 44.16 195.787 44.52C194.927 44.88 193.867 45.06 192.607 45.06H189.307V54H187.837V32.7H192.697ZM192.517 43.65C193.577 43.65 194.457 43.5 195.157 43.2C195.857 42.9 196.407 42.51 196.807 42.03C197.207 41.55 197.487 41.03 197.647 40.47C197.827 39.89 197.917 39.33 197.917 38.79C197.917 38.15 197.797 37.55 197.557 36.99C197.337 36.43 197.007 35.94 196.567 35.52C196.127 35.08 195.597 34.74 194.977 34.5C194.357 34.24 193.667 34.11 192.907 34.11H189.307V43.65H192.517ZM195.577 44.31L201.487 54H199.777L193.837 44.34L195.577 44.31ZM215.084 46.41L207.134 32.7H208.934L216.104 45.18L215.594 45.21L222.734 32.7H224.504L216.554 46.41V54H215.084V46.41Z" fill="black"/>
</svg>
